<svg version="1.2" xmlns="http://www.w3.org/2000/svg" viewBox="0 0 1366 768" width="1366" height="768">
	<title>waves-svg</title>
	<defs>
		<linearGradient id="g1" x1="1671984" y1="316057.1" x2="295056" y2="88557" gradientUnits="userSpaceOnUse">
			<stop offset=".1" stop-color="#8ed1fc"/>
			<stop offset=".9" stop-color="#0693e3"/>
		</linearGradient>
		<linearGradient id="g2" x1="1671984" y1="204294.4" x2="295056" y2="57359.2" gradientUnits="userSpaceOnUse">
			<stop offset=".1" stop-color="#8ed1fc"/>
			<stop offset=".9" stop-color="#0693e3"/>
		</linearGradient>
		<linearGradient id="g3" x1="1671984" y1="83341.4" x2="295056" y2="23635.1" gradientUnits="userSpaceOnUse">
			<stop offset=".1" stop-color="#8ed1fc"/>
			<stop offset=".9" stop-color="#0693e3"/>
		</linearGradient>
		<linearGradient id="g4" x1="1671984" y1="31497.4" x2="295056" y2="9217.1" gradientUnits="userSpaceOnUse">
			<stop offset=".1" stop-color="#8ed1fc"/>
			<stop offset=".9" stop-color="#0693e3"/>
		</linearGradient>
	</defs>
	<style>
		.s0 { opacity: .3;fill: url(#g1) } 
		.s1 { opacity: .4;fill: url(#g2) } 
		.s2 { opacity: .5;fill: url(#g3) } 
		.s3 { fill: url(#g4) } 
	</style>
	<path id="Layer" class="s0" d="m0 768v-661.1c81.7 5.3 163.4 10.5 215.3-1.2 51.9-11.7 74-40.3 140.4-23.6 66.5 16.7 177.3 78.9 258.1 77.9 80.8-0.9 131.6-64.9 188.7-72 57.2-7.1 120.7 42.7 175.5 60.2 54.8 17.5 100.9 2.8 164.1-9.4 63.2-12.3 143.6-22.1 223.9-31.9v661.1z"/>
	<path id="Layer" class="s1" d="m0 768v-495.8c53.7-17.5 107.3-34.9 170.7-47.2 63.5-12.4 136.7-19.5 215.4-1.2 78.7 18.3 162.9 62.1 227.7 70.8 64.7 8.7 109.8-17.6 173.5-37.8 63.8-20.2 146.1-34.2 209.7-29.5 63.6 4.8 108.6 28.4 166.9 39 58.4 10.6 130.3 8.2 202.1 5.9v495.8z"/>
	<path id="Layer" class="s2" d="m0 768v-330.6c73.9 18.1 147.9 36.2 203 40.2 55.1 4 91.5-6.2 151.8-23.6 60.2-17.5 144.4-42.3 216.3-36.6 71.8 5.7 131.3 41.8 201.1 64.9 69.7 23.1 149.7 33.1 214.4 15.4 64.6-17.8 113.8-63.3 174.5-78 60.7-14.6 132.8 1.6 204.9 17.7v330.6z"/>
	<path id="Layer" class="s3" d="m0 768v-165.3c54.5-30.9 108.9-61.9 168.9-47.2 59.9 14.7 125.2 74.9 202 103.9 76.8 29 165 26.7 221-3.6 56.1-30.2 80-88.3 152.8-96.8 72.7-8.4 175.3 48.1 243.8 60 68.4 12 142.6-42.1 193.5-47.2 50.9-5.1 113.8 9.4 184 30.9v165.3z"/>
</svg>